<svg width="193" height="196" viewBox="0 0 193 196" fill="none" xmlns="http://www.w3.org/2000/svg">
<path d="M8 8H10.6835C15.4213 8 17.7943 8 19.7267 8.85478C21.4304 9.60841 22.8871 10.8218 23.9375 12.3604C25.1269 14.1026 25.5564 16.429 26.4137 21.0727L48.0004 138L152.218 138C156.75 138 159.023 138 160.9 137.199C162.559 136.492 163.989 135.346 165.051 133.889C166.252 132.242 166.761 130.037 167.777 125.631L167.785 125.6L183.477 57.5996L183.481 57.5854C185.023 50.9016 185.796 47.5515 184.947 44.9238C184.203 42.6182 182.635 40.6634 180.556 39.4192C178.184 38 174.758 38 167.887 38H33M158 188C152.477 188 148 183.523 148 178C148 172.477 152.477 168 158 168C163.523 168 168 172.477 168 178C168 183.523 163.523 188 158 188ZM58 188C52.4772 188 48 183.523 48 178C48 172.477 52.4772 168 58 168C63.5229 168 68 172.477 68 178C68 183.523 63.5229 188 58 188Z" stroke="white" stroke-width="15" stroke-linecap="round" stroke-linejoin="round"/>
</svg>
