<svg width="196" height="186" viewBox="0 0 196 186" fill="none" xmlns="http://www.w3.org/2000/svg">
<path d="M98 33V58M98 33C98 19.1929 109.193 8 123 8C136.807 8 148 19.1929 148 33C148 46.8071 136.807 58 123 58M98 33C98 19.1929 86.8071 8 73 8C59.1929 8 48 19.1929 48 33C48 46.8071 59.1929 58 73 58M98 58H123M98 58H73M98 58V118M123 58H156.002C167.203 58 172.796 58 177.074 60.1799C180.837 62.0973 183.905 65.1547 185.822 68.918C188 73.192 188 78.7899 188 89.9691V118M73 58H40.002C28.8009 58 23.1962 58 18.918 60.1799C15.1547 62.0973 12.0973 65.1547 10.1799 68.918C8 73.1962 8 78.8009 8 90.002V118M8 118V146.002C8 157.203 8 162.801 10.1799 167.079C12.0973 170.842 15.1547 173.905 18.918 175.822C23.192 178 28.7899 178 39.9691 178H98M8 118H98M98 118V178M98 118H188M98 178H156.031C167.21 178 172.8 178 177.074 175.822C180.837 173.905 183.905 170.842 185.822 167.079C188 162.805 188 157.215 188 146.036V118" stroke="white" stroke-width="15" stroke-linecap="round" stroke-linejoin="round"/>
</svg>
