<svg width="196" height="166" viewBox="0 0 196 166" fill="none" xmlns="http://www.w3.org/2000/svg">
<path d="M98 55.998V157.998M98 55.998C98 39.1965 98 30.7992 101.27 24.3818C104.146 18.737 108.732 14.146 114.377 11.2698C120.794 8 129.196 8 145.998 8H171.998C177.599 8 180.401 8 182.54 9.08993C184.422 10.0487 185.948 11.5774 186.906 13.459C187.996 15.5981 188 18.4004 188 24.001V112.001C188 117.601 187.996 120.398 186.906 122.537C185.948 124.419 184.425 125.952 182.543 126.911C180.406 128 177.61 128 172.02 128H143.693C134.301 128 129.597 128 125.334 129.295C121.56 130.441 118.057 132.317 115.01 134.821C111.568 137.65 108.96 141.557 103.75 149.372L98 157.998M98 55.998C98 39.1965 97.9983 30.7992 94.7285 24.3818C91.8523 18.737 87.2626 14.146 81.6178 11.2698C75.2004 8 66.7977 8 49.9961 8H23.9961C18.3956 8 15.5981 8 13.459 9.08993C11.5774 10.0487 10.0487 11.5774 9.08993 13.459C8 15.5981 8 18.4004 8 24.001V112.001C8 117.601 8 120.398 9.08993 122.537C10.0487 124.419 11.5774 125.952 13.459 126.911C15.596 128 18.3901 128 23.9797 128H52.3073C61.6994 128 66.3942 128 70.6569 129.295C74.4306 130.441 77.9512 132.317 80.998 134.821C84.4257 137.638 87.0172 141.526 92.1848 149.277L98 157.998" stroke="white" stroke-width="15" stroke-linecap="round" stroke-linejoin="round"/>
</svg>
